<svg width="638" height="50" viewBox="0 0 638 50" fill="none" xmlns="http://www.w3.org/2000/svg">
<rect x="1" y="1" width="636" height="48" rx="3" fill="#24252E"/>
<path d="M25.11 26.388H22.548V30H21.176V19.878H25.11C27.098 19.878 28.372 21.18 28.372 23.126C28.372 25.016 27.084 26.388 25.11 26.388ZM24.872 21.11H22.548V25.156H24.816C26.174 25.156 26.93 24.358 26.93 23.112C26.93 21.838 26.16 21.11 24.872 21.11ZM28.9395 26.57C28.9395 24.456 30.4515 22.972 32.5095 22.972C34.5535 22.972 36.0655 24.456 36.0655 26.57C36.0655 28.684 34.5535 30.168 32.5095 30.168C30.4515 30.168 28.9395 28.684 28.9395 26.57ZM30.2695 26.57C30.2695 27.998 31.1795 28.992 32.5095 28.992C33.8255 28.992 34.7495 27.998 34.7495 26.57C34.7495 25.142 33.8255 24.148 32.5095 24.148C31.1795 24.148 30.2695 25.142 30.2695 26.57ZM37.5223 33.066V23.154H38.7123L38.8103 24.386C39.2723 23.448 40.1963 22.958 41.2883 22.958C43.2483 22.958 44.4663 24.428 44.4663 26.528C44.4663 28.614 43.3183 30.182 41.2883 30.182C40.1963 30.182 39.2863 29.72 38.8383 28.88V33.066H37.5223ZM38.8523 26.584C38.8523 27.984 39.6643 28.992 41.0083 28.992C42.3523 28.992 43.1503 27.984 43.1503 26.584C43.1503 25.17 42.3523 24.162 41.0083 24.162C39.6643 24.162 38.8523 25.156 38.8523 26.584ZM50.4848 23.154H51.7868V30H50.6108L50.4708 28.964C50.0788 29.678 49.1688 30.168 48.1608 30.168C46.5648 30.168 45.6688 29.09 45.6688 27.41V23.154H46.9848V26.976C46.9848 28.446 47.6148 29.006 48.6228 29.006C49.8268 29.006 50.4848 28.236 50.4848 26.766V23.154ZM55.0401 30H53.7241V19.696H55.0401V30ZM58.9794 30.168C57.5094 30.168 56.6414 29.342 56.6414 28.096C56.6414 26.836 57.5794 26.052 59.1894 25.926L61.3454 25.758V25.562C61.3454 24.414 60.6594 24.008 59.7354 24.008C58.6294 24.008 57.9994 24.498 57.9994 25.324H56.8514C56.8514 23.896 58.0274 22.958 59.7914 22.958C61.4854 22.958 62.6334 23.854 62.6334 25.702V30H61.5134L61.3734 28.894C61.0234 29.678 60.0854 30.168 58.9794 30.168ZM59.3574 29.146C60.6034 29.146 61.3594 28.334 61.3594 27.046V26.682L59.6094 26.822C58.4474 26.934 57.9714 27.382 57.9714 28.054C57.9714 28.782 58.5034 29.146 59.3574 29.146ZM68.3759 23.098V24.302H67.7879C66.5419 24.302 65.7719 25.058 65.7719 26.374V30H64.4559V23.168H65.6879L65.7719 24.204C66.0519 23.49 66.7379 23.014 67.6759 23.014C67.9139 23.014 68.1099 23.042 68.3759 23.098Z" fill="white"/>
<rect x="496.999" y="12" width="47" height="26" rx="13" fill="#3E3F49"/>
<path d="M513.665 24.974C513.665 27.416 512.059 29.132 509.749 29.132C507.45 29.132 505.866 27.427 505.866 24.974C505.866 22.532 507.461 20.816 509.76 20.816C512.059 20.816 513.665 22.521 513.665 24.974ZM512.18 24.974C512.18 23.258 511.234 22.169 509.76 22.169C508.286 22.169 507.34 23.258 507.34 24.974C507.34 26.69 508.286 27.779 509.76 27.779C511.234 27.779 512.18 26.668 512.18 24.974ZM516.119 29H514.777V23.566H516.02L516.13 24.27C516.471 23.72 517.131 23.401 517.868 23.401C519.232 23.401 519.936 24.248 519.936 25.656V29H518.594V25.975C518.594 25.062 518.143 24.622 517.45 24.622C516.625 24.622 516.119 25.194 516.119 26.074V29Z" fill="#07D41B"/>
<circle cx="530.999" cy="25" r="6" fill="#07D41B"/>
<path d="M572.713 29.6667C572.713 30.4033 573.353 31 574.142 31H579.856C580.645 31 581.285 30.4033 581.285 29.6667V21.6667H572.713V29.6667ZM581.999 19.6667H579.499L578.785 19H575.213L574.499 19.6667H571.999V21H581.999V19.6667Z" fill="#9B9D9F"/>
<g opacity="0.5">
<path d="M611.094 18.4279C611.443 18.352 611.821 18.4113 612.124 18.6017C612.48 18.8173 612.728 19.2004 612.778 19.614C612.826 19.9782 612.722 20.3587 612.495 20.6476C612.266 20.9444 611.913 21.1423 611.539 21.178C611.089 21.2287 610.621 21.0406 610.331 20.6931C610.043 20.3607 609.933 19.8876 610.038 19.4615C610.156 18.9528 610.584 18.5362 611.094 18.4279Z" fill="white"/>
<path d="M616.312 18.4256C616.668 18.3507 617.054 18.4181 617.359 18.6187C617.7 18.8363 617.936 19.2096 617.985 19.6115C618.034 19.9796 617.928 20.365 617.696 20.6553C617.45 20.9717 617.061 21.1713 616.659 21.1847C616.245 21.2043 615.828 21.026 615.556 20.7142C615.27 20.3958 615.148 19.941 615.232 19.5215C615.331 18.9839 615.776 18.5339 616.312 18.4256Z" fill="white"/>
<path d="M611.256 23.6136C611.623 23.5769 612.002 23.6901 612.284 23.928C612.592 24.1809 612.782 24.5712 612.788 24.9701C612.801 25.3987 612.601 25.8263 612.265 26.0916C611.998 26.3082 611.648 26.4165 611.306 26.3943C610.894 26.371 610.5 26.1515 610.261 25.8158C610.025 25.4919 609.942 25.0633 610.038 24.6743C610.166 24.1099 610.679 23.6623 611.256 23.6136Z" fill="white"/>
<path d="M616.475 23.6128C616.796 23.5827 617.126 23.6662 617.391 23.849C617.738 24.0836 617.969 24.4818 617.996 24.9003C618.029 25.3092 617.867 25.7273 617.569 26.0097C617.296 26.2754 616.909 26.4174 616.528 26.3948C616.123 26.3755 615.733 26.1658 615.491 25.8409C615.228 25.4983 615.143 25.0295 615.264 24.615C615.413 24.0751 615.917 23.6573 616.475 23.6128Z" fill="white"/>
<path d="M611.127 28.8393C611.487 28.7693 611.875 28.8448 612.177 29.0533C612.501 29.2718 612.727 29.6321 612.776 30.0204C612.824 30.3604 612.74 30.717 612.544 30.9991C612.323 31.323 611.96 31.5468 611.57 31.5923C611.123 31.6531 610.653 31.4768 610.355 31.1385C610.054 30.8086 609.932 30.329 610.035 29.8948C610.15 29.3683 610.597 28.9371 611.127 28.8393Z" fill="white"/>
<path d="M616.344 28.8373C616.681 28.7745 617.041 28.8386 617.332 29.0202C617.675 29.2283 617.918 29.5915 617.979 29.988C618.038 30.3509 617.947 30.7356 617.728 31.0314C617.495 31.354 617.118 31.5674 616.721 31.5984C616.293 31.6387 615.853 31.464 615.567 31.144C615.27 30.822 615.145 30.3564 615.234 29.9288C615.339 29.3844 615.799 28.9332 616.344 28.8373Z" fill="white"/>
</g>
<rect x="1" y="1" width="636" height="48" rx="3" stroke="#323443" stroke-width="2"/>
</svg>
